<?xml version="1.0" encoding="UTF-8"?>
<!DOCTYPE svg PUBLIC "-//W3C//DTD SVG 1.1//EN" "http://www.w3.org/Graphics/SVG/1.1/DTD/svg11.dtd">
<svg version="1.1" xmlns="http://www.w3.org/2000/svg" xmlns:xlink="http://www.w3.org/1999/xlink" x="0px" y="0px" width="1000" height="660" viewBox="0, 0, 1000, 660">
  <g id="Background">
    <rect x="0" y="0" width="1000" height="660" fill="#000000" fill-opacity="0"/>
  </g>
  <g id="Background"/>
  <g id="Layer 1">
    <g>
      <path d="M72.5,312.5 L120.5,312.5 L120.5,360.5 L72.5,360.5 z" fill="#8FC7ED"/>
      <path d="M72.5,312.5 L120.5,312.5 L120.5,360.5 L72.5,360.5 z" fill-opacity="0" stroke="#294270" stroke-width="1"/>
    </g>
    <g>
      <path d="M120.5,312.5 L168.5,312.5 L168.5,360.5 L120.5,360.5 z" fill="#8FC7ED"/>
      <path d="M120.5,312.5 L168.5,312.5 L168.5,360.5 L120.5,360.5 z" fill-opacity="0" stroke="#294270" stroke-width="1"/>
    </g>
    <g>
      <path d="M168.5,312.5 L216.5,312.5 L216.5,360.5 L168.5,360.5 z" fill="#8FC7ED"/>
      <path d="M168.5,312.5 L216.5,312.5 L216.5,360.5 L168.5,360.5 z" fill-opacity="0" stroke="#294270" stroke-width="1"/>
    </g>
    <g>
      <path d="M216.5,312.5 L264.5,312.5 L264.5,360.5 L216.5,360.5 z" fill="#FABA00"/>
      <path d="M216.5,312.5 L264.5,312.5 L264.5,360.5 L216.5,360.5 z" fill-opacity="0" stroke="#294270" stroke-width="1"/>
    </g>
    <g>
      <path d="M264.5,312.5 L312.5,312.5 L312.5,360.5 L264.5,360.5 z" fill="#8FC7ED"/>
      <path d="M264.5,312.5 L312.5,312.5 L312.5,360.5 L264.5,360.5 z" fill-opacity="0" stroke="#294270" stroke-width="1"/>
    </g>
    <g>
      <path d="M312.5,312.5 L360.5,312.5 L360.5,360.5 L312.5,360.5 z" fill="#8FC7ED"/>
      <path d="M312.5,312.5 L360.5,312.5 L360.5,360.5 L312.5,360.5 z" fill-opacity="0" stroke="#294270" stroke-width="1"/>
    </g>
    <g>
      <path d="M48.5,264.5 L96.5,264.5 L96.5,312.5 L48.5,312.5 z" fill="#8FC7ED"/>
      <path d="M48.5,264.5 L96.5,264.5 L96.5,312.5 L48.5,312.5 z" fill-opacity="0" stroke="#294270" stroke-width="1"/>
    </g>
    <g>
      <path d="M96.5,264.5 L144.5,264.5 L144.5,312.5 L96.5,312.5 z" fill="#8FC7ED"/>
      <path d="M96.5,264.5 L144.5,264.5 L144.5,312.5 L96.5,312.5 z" fill-opacity="0" stroke="#294270" stroke-width="1"/>
    </g>
    <g>
      <path d="M144.5,264.5 L192.5,264.5 L192.5,312.5 L144.5,312.5 z" fill="#8FC7ED"/>
      <path d="M144.5,264.5 L192.5,264.5 L192.5,312.5 L144.5,312.5 z" fill-opacity="0" stroke="#294270" stroke-width="1"/>
    </g>
    <g>
      <path d="M192.5,264.5 L240.5,264.5 L240.5,312.5 L192.5,312.5 z" fill="#FABA00"/>
      <path d="M192.5,264.5 L240.5,264.5 L240.5,312.5 L192.5,312.5 z" fill-opacity="0" stroke="#294270" stroke-width="1"/>
    </g>
    <g>
      <path d="M240.5,264.5 L288.5,264.5 L288.5,312.5 L240.5,312.5 z" fill="#8FC7ED"/>
      <path d="M240.5,264.5 L288.5,264.5 L288.5,312.5 L240.5,312.5 z" fill-opacity="0" stroke="#294270" stroke-width="1"/>
    </g>
    <g>
      <path d="M72.5,216.5 L120.5,216.5 L120.5,264.5 L72.5,264.5 z" fill="#8FC7ED"/>
      <path d="M72.5,216.5 L120.5,216.5 L120.5,264.5 L72.5,264.5 z" fill-opacity="0" stroke="#294270" stroke-width="1"/>
    </g>
    <g>
      <path d="M120.5,216.5 L168.5,216.5 L168.5,264.5 L120.5,264.5 z" fill="#8FC7ED"/>
      <path d="M120.5,216.5 L168.5,216.5 L168.5,264.5 L120.5,264.5 z" fill-opacity="0" stroke="#294270" stroke-width="1"/>
    </g>
    <g>
      <path d="M168.5,216.5 L216.5,216.5 L216.5,264.5 L168.5,264.5 z" fill="#FABA00"/>
      <path d="M168.5,216.5 L216.5,216.5 L216.5,264.5 L168.5,264.5 z" fill-opacity="0" stroke="#294270" stroke-width="1"/>
    </g>
    <g>
      <path d="M216.5,216.5 L264.5,216.5 L264.5,264.5 L216.5,264.5 z" fill="#8FC7ED"/>
      <path d="M216.5,216.5 L264.5,216.5 L264.5,264.5 L216.5,264.5 z" fill-opacity="0" stroke="#294270" stroke-width="1"/>
    </g>
    <g>
      <path d="M288.5,264.5 L336.5,264.5 L336.5,312.5 L288.5,312.5 z" fill="#8FC7ED"/>
      <path d="M288.5,264.5 L336.5,264.5 L336.5,312.5 L288.5,312.5 z" fill-opacity="0" stroke="#294270" stroke-width="1"/>
    </g>
    <g>
      <path d="M96.5,168.5 L144.5,168.5 L144.5,216.5 L96.5,216.5 z" fill="#8FC7ED"/>
      <path d="M96.5,168.5 L144.5,168.5 L144.5,216.5 L96.5,216.5 z" fill-opacity="0" stroke="#294270" stroke-width="1"/>
    </g>
    <g>
      <path d="M144.5,168.5 L192.5,168.5 L192.5,216.5 L144.5,216.5 z" fill="#8FC7ED"/>
      <path d="M144.5,168.5 L192.5,168.5 L192.5,216.5 L144.5,216.5 z" fill-opacity="0" stroke="#294270" stroke-width="1"/>
    </g>
    <g>
      <path d="M192.5,168.5 L240.5,168.5 L240.5,216.5 L192.5,216.5 z" fill="#FABA00"/>
      <path d="M192.5,168.5 L240.5,168.5 L240.5,216.5 L192.5,216.5 z" fill-opacity="0" stroke="#294270" stroke-width="1"/>
    </g>
    <g>
      <path d="M240.5,168.5 L288.5,168.5 L288.5,216.5 L240.5,216.5 z" fill="#8FC7ED"/>
      <path d="M240.5,168.5 L288.5,168.5 L288.5,216.5 L240.5,216.5 z" fill-opacity="0" stroke="#294270" stroke-width="1"/>
    </g>
    <g>
      <path d="M24.5,312.5 L72.5,312.5 L72.5,360.5 L24.5,360.5 z" fill="#8FC7ED"/>
      <path d="M24.5,312.5 L72.5,312.5 L72.5,360.5 L24.5,360.5 z" fill-opacity="0" stroke="#294270" stroke-width="1"/>
    </g>
    <g>
      <path d="M120.5,120.5 L168.5,120.5 L168.5,168.5 L120.5,168.5 z" fill="#8FC7ED"/>
      <path d="M120.5,120.5 L168.5,120.5 L168.5,168.5 L120.5,168.5 z" fill-opacity="0" stroke="#294270" stroke-width="1"/>
    </g>
    <g>
      <path d="M168.5,120.5 L216.5,120.5 L216.5,168.5 L168.5,168.5 z" fill="#FABA00"/>
      <path d="M168.5,120.5 L216.5,120.5 L216.5,168.5 L168.5,168.5 z" fill-opacity="0" stroke="#294270" stroke-width="1"/>
    </g>
    <g>
      <path d="M216.5,120.5 L264.5,120.5 L264.5,168.5 L216.5,168.5 z" fill="#8FC7ED"/>
      <path d="M216.5,120.5 L264.5,120.5 L264.5,168.5 L216.5,168.5 z" fill-opacity="0" stroke="#294270" stroke-width="1"/>
    </g>
    <g>
      <path d="M264.5,216.5 L312.5,216.5 L312.5,264.5 L264.5,264.5 z" fill="#8FC7ED"/>
      <path d="M264.5,216.5 L312.5,216.5 L312.5,264.5 L264.5,264.5 z" fill-opacity="0" stroke="#294270" stroke-width="1"/>
    </g>
    <g>
      <path d="M144.5,72.5 L192.5,72.5 L192.5,120.5 L144.5,120.5 z" fill="#8FC7ED"/>
      <path d="M144.5,72.5 L192.5,72.5 L192.5,120.5 L144.5,120.5 z" fill-opacity="0" stroke="#294270" stroke-width="1"/>
    </g>
    <g>
      <path d="M192.5,72.5 L240.5,72.5 L240.5,120.5 L192.5,120.5 z" fill="#FABA00"/>
      <path d="M192.5,72.5 L240.5,72.5 L240.5,120.5 L192.5,120.5 z" fill-opacity="0" stroke="#294270" stroke-width="1"/>
    </g>
    <g>
      <path d="M168.5,24.5 L216.5,24.5 L216.5,72.5 L168.5,72.5 z" fill="#FABA00"/>
      <path d="M168.5,24.5 L216.5,24.5 L216.5,72.5 L168.5,72.5 z" fill-opacity="0" stroke="#294270" stroke-width="1"/>
    </g>
    <g>
      <path d="M456.5,312.5 L504.5,312.5 L504.5,360.5 L456.5,360.5 z" fill="#8FC7ED"/>
      <path d="M456.5,312.5 L504.5,312.5 L504.5,360.5 L456.5,360.5 z" fill-opacity="0" stroke="#294270" stroke-width="1"/>
    </g>
    <g>
      <path d="M504.5,312.5 L552.5,312.5 L552.5,360.5 L504.5,360.5 z" fill="#8FC7ED"/>
      <path d="M504.5,312.5 L552.5,312.5 L552.5,360.5 L504.5,360.5 z" fill-opacity="0" stroke="#294270" stroke-width="1"/>
    </g>
    <g>
      <path d="M552.5,312.5 L600.5,312.5 L600.5,360.5 L552.5,360.5 z" fill="#8FC7ED"/>
      <path d="M552.5,312.5 L600.5,312.5 L600.5,360.5 L552.5,360.5 z" fill-opacity="0" stroke="#294270" stroke-width="1"/>
    </g>
    <g>
      <path d="M600.5,312.5 L648.5,312.5 L648.5,360.5 L600.5,360.5 z" fill="#8FC7ED"/>
      <path d="M600.5,312.5 L648.5,312.5 L648.5,360.5 L600.5,360.5 z" fill-opacity="0" stroke="#294270" stroke-width="1"/>
    </g>
    <g>
      <path d="M648.5,312.5 L696.5,312.5 L696.5,360.5 L648.5,360.5 z" fill="#8FC7ED"/>
      <path d="M648.5,312.5 L696.5,312.5 L696.5,360.5 L648.5,360.5 z" fill-opacity="0" stroke="#294270" stroke-width="1"/>
    </g>
    <g>
      <path d="M696.5,312.5 L744.5,312.5 L744.5,360.5 L696.5,360.5 z" fill="#FABA00"/>
      <path d="M696.5,312.5 L744.5,312.5 L744.5,360.5 L696.5,360.5 z" fill-opacity="0" stroke="#294270" stroke-width="1"/>
    </g>
    <g>
      <path d="M432.5,264.5 L480.5,264.5 L480.5,312.5 L432.5,312.5 z" fill="#8FC7ED"/>
      <path d="M432.5,264.5 L480.5,264.5 L480.5,312.5 L432.5,312.5 z" fill-opacity="0" stroke="#294270" stroke-width="1"/>
    </g>
    <g>
      <path d="M480.5,264.5 L528.5,264.5 L528.5,312.5 L480.5,312.5 z" fill="#8FC7ED"/>
      <path d="M480.5,264.5 L528.5,264.5 L528.5,312.5 L480.5,312.5 z" fill-opacity="0" stroke="#294270" stroke-width="1"/>
    </g>
    <g>
      <path d="M528.5,264.5 L576.5,264.5 L576.5,312.5 L528.5,312.5 z" fill="#8FC7ED"/>
      <path d="M528.5,264.5 L576.5,264.5 L576.5,312.5 L528.5,312.5 z" fill-opacity="0" stroke="#294270" stroke-width="1"/>
    </g>
    <g>
      <path d="M576.5,264.5 L624.5,264.5 L624.5,312.5 L576.5,312.5 z" fill="#8FC7ED"/>
      <path d="M576.5,264.5 L624.5,264.5 L624.5,312.5 L576.5,312.5 z" fill-opacity="0" stroke="#294270" stroke-width="1"/>
    </g>
    <g>
      <path d="M624.5,264.5 L672.5,264.5 L672.5,312.5 L624.5,312.5 z" fill="#8FC7ED"/>
      <path d="M624.5,264.5 L672.5,264.5 L672.5,312.5 L624.5,312.5 z" fill-opacity="0" stroke="#294270" stroke-width="1"/>
    </g>
    <g>
      <path d="M456.5,216.5 L504.5,216.5 L504.5,264.5 L456.5,264.5 z" fill="#8FC7ED"/>
      <path d="M456.5,216.5 L504.5,216.5 L504.5,264.5 L456.5,264.5 z" fill-opacity="0" stroke="#294270" stroke-width="1"/>
    </g>
    <g>
      <path d="M504.5,216.5 L552.5,216.5 L552.5,264.5 L504.5,264.5 z" fill="#8FC7ED"/>
      <path d="M504.5,216.5 L552.5,216.5 L552.5,264.5 L504.5,264.5 z" fill-opacity="0" stroke="#294270" stroke-width="1"/>
    </g>
    <g>
      <path d="M552.5,216.5 L600.5,216.5 L600.5,264.5 L552.5,264.5 z" fill="#8FC7ED"/>
      <path d="M552.5,216.5 L600.5,216.5 L600.5,264.5 L552.5,264.5 z" fill-opacity="0" stroke="#294270" stroke-width="1"/>
    </g>
    <g>
      <path d="M600.5,216.5 L648.5,216.5 L648.5,264.5 L600.5,264.5 z" fill="#8FC7ED"/>
      <path d="M600.5,216.5 L648.5,216.5 L648.5,264.5 L600.5,264.5 z" fill-opacity="0" stroke="#294270" stroke-width="1"/>
    </g>
    <g>
      <path d="M672.5,264.5 L720.5,264.5 L720.5,312.5 L672.5,312.5 z" fill="#FABA00"/>
      <path d="M672.5,264.5 L720.5,264.5 L720.5,312.5 L672.5,312.5 z" fill-opacity="0" stroke="#294270" stroke-width="1"/>
    </g>
    <g>
      <path d="M480.5,168.5 L528.5,168.5 L528.5,216.5 L480.5,216.5 z" fill="#8FC7ED"/>
      <path d="M480.5,168.5 L528.5,168.5 L528.5,216.5 L480.5,216.5 z" fill-opacity="0" stroke="#294270" stroke-width="1"/>
    </g>
    <g>
      <path d="M528.5,168.5 L576.5,168.5 L576.5,216.5 L528.5,216.5 z" fill="#8FC7ED"/>
      <path d="M528.5,168.5 L576.5,168.5 L576.5,216.5 L528.5,216.5 z" fill-opacity="0" stroke="#294270" stroke-width="1"/>
    </g>
    <g>
      <path d="M576.5,168.5 L624.5,168.5 L624.5,216.5 L576.5,216.5 z" fill="#8FC7ED"/>
      <path d="M576.5,168.5 L624.5,168.5 L624.5,216.5 L576.5,216.5 z" fill-opacity="0" stroke="#294270" stroke-width="1"/>
    </g>
    <g>
      <path d="M624.5,168.5 L672.5,168.5 L672.5,216.5 L624.5,216.5 z" fill="#FABA00"/>
      <path d="M624.5,168.5 L672.5,168.5 L672.5,216.5 L624.5,216.5 z" fill-opacity="0" stroke="#294270" stroke-width="1"/>
    </g>
    <g>
      <path d="M408.5,312.5 L456.5,312.5 L456.5,360.5 L408.5,360.5 z" fill="#8FC7ED"/>
      <path d="M408.5,312.5 L456.5,312.5 L456.5,360.5 L408.5,360.5 z" fill-opacity="0" stroke="#294270" stroke-width="1"/>
    </g>
    <g>
      <path d="M504.5,120.5 L552.5,120.5 L552.5,168.5 L504.5,168.5 z" fill="#8FC7ED"/>
      <path d="M504.5,120.5 L552.5,120.5 L552.5,168.5 L504.5,168.5 z" fill-opacity="0" stroke="#294270" stroke-width="1"/>
    </g>
    <g>
      <path d="M552.5,120.5 L600.5,120.5 L600.5,168.5 L552.5,168.5 z" fill="#8FC7ED"/>
      <path d="M552.5,120.5 L600.5,120.5 L600.5,168.5 L552.5,168.5 z" fill-opacity="0" stroke="#294270" stroke-width="1"/>
    </g>
    <g>
      <path d="M600.5,120.5 L648.5,120.5 L648.5,168.5 L600.5,168.5 z" fill="#FABA00"/>
      <path d="M600.5,120.5 L648.5,120.5 L648.5,168.5 L600.5,168.5 z" fill-opacity="0" stroke="#294270" stroke-width="1"/>
    </g>
    <g>
      <path d="M648.5,216.5 L696.5,216.5 L696.5,264.5 L648.5,264.5 z" fill="#FABA00"/>
      <path d="M648.5,216.5 L696.5,216.5 L696.5,264.5 L648.5,264.5 z" fill-opacity="0" stroke="#294270" stroke-width="1"/>
    </g>
    <g>
      <path d="M528.5,72.5 L576.5,72.5 L576.5,120.5 L528.5,120.5 z" fill="#8FC7ED"/>
      <path d="M528.5,72.5 L576.5,72.5 L576.5,120.5 L528.5,120.5 z" fill-opacity="0" stroke="#294270" stroke-width="1"/>
    </g>
    <g>
      <path d="M576.5,72.5 L624.5,72.5 L624.5,120.5 L576.5,120.5 z" fill="#FABA00"/>
      <path d="M576.5,72.5 L624.5,72.5 L624.5,120.5 L576.5,120.5 z" fill-opacity="0" stroke="#294270" stroke-width="1"/>
    </g>
    <g>
      <path d="M552.5,24.5 L600.5,24.5 L600.5,72.5 L552.5,72.5 z" fill="#FABA00"/>
      <path d="M552.5,24.5 L600.5,24.5 L600.5,72.5 L552.5,72.5 z" fill-opacity="0" stroke="#294270" stroke-width="1"/>
    </g>
    <g>
      <path d="M792.5,312.5 L840.5,312.5 L840.5,360.5 L792.5,360.5 z" fill="#8FC7ED"/>
      <path d="M792.5,312.5 L840.5,312.5 L840.5,360.5 L792.5,360.5 z" fill-opacity="0" stroke="#294270" stroke-width="1"/>
    </g>
    <g>
      <path d="M840.5,312.5 L888.5,312.5 L888.5,360.5 L840.5,360.5 z" fill="#8FC7ED"/>
      <path d="M840.5,312.5 L888.5,312.5 L888.5,360.5 L840.5,360.5 z" fill-opacity="0" stroke="#294270" stroke-width="1"/>
    </g>
    <g>
      <path d="M888.5,312.5 L936.5,312.5 L936.5,360.5 L888.5,360.5 z" fill="#8FC7ED"/>
      <path d="M888.5,312.5 L936.5,312.5 L936.5,360.5 L888.5,360.5 z" fill-opacity="0" stroke="#294270" stroke-width="1"/>
    </g>
    <g>
      <path d="M936.5,312.5 L984.5,312.5 L984.5,360.5 L936.5,360.5 z" fill="#8FC7ED"/>
      <path d="M936.5,312.5 L984.5,312.5 L984.5,360.5 L936.5,360.5 z" fill-opacity="0" stroke="#294270" stroke-width="1"/>
    </g>
    <g>
      <path d="M816.5,264.5 L864.5,264.5 L864.5,312.5 L816.5,312.5 z" fill="#8FC7ED"/>
      <path d="M816.5,264.5 L864.5,264.5 L864.5,312.5 L816.5,312.5 z" fill-opacity="0" stroke="#294270" stroke-width="1"/>
    </g>
    <g>
      <path d="M864.5,264.5 L912.5,264.5 L912.5,312.5 L864.5,312.5 z" fill="#8FC7ED"/>
      <path d="M864.5,264.5 L912.5,264.5 L912.5,312.5 L864.5,312.5 z" fill-opacity="0" stroke="#294270" stroke-width="1"/>
    </g>
    <g>
      <path d="M912.5,264.5 L960.5,264.5 L960.5,312.5 L912.5,312.5 z" fill="#8FC7ED"/>
      <path d="M912.5,264.5 L960.5,264.5 L960.5,312.5 L912.5,312.5 z" fill-opacity="0" stroke="#294270" stroke-width="1"/>
    </g>
    <g>
      <path d="M840.5,216.5 L888.5,216.5 L888.5,264.5 L840.5,264.5 z" fill="#8FC7ED"/>
      <path d="M840.5,216.5 L888.5,216.5 L888.5,264.5 L840.5,264.5 z" fill-opacity="0" stroke="#294270" stroke-width="1"/>
    </g>
    <g>
      <path d="M888.5,216.5 L936.5,216.5 L936.5,264.5 L888.5,264.5 z" fill="#8FC7ED"/>
      <path d="M888.5,216.5 L936.5,216.5 L936.5,264.5 L888.5,264.5 z" fill-opacity="0" stroke="#294270" stroke-width="1"/>
    </g>
    <g>
      <path d="M864.5,168.5 L912.5,168.5 L912.5,216.5 L864.5,216.5 z" fill="#8FC7ED"/>
      <path d="M864.5,168.5 L912.5,168.5 L912.5,216.5 L864.5,216.5 z" fill-opacity="0" stroke="#294270" stroke-width="1"/>
    </g>
    <g>
      <text transform="matrix(1, 0, 0, 1, 40.094, 392.522)">
        <tspan x="-6.206" y="8" font-family="Verdana-Bold" font-size="21" fill="#294270">[</tspan>
      </text>
      <text transform="matrix(1, 0, 0, 1, 57.059, 417.522)">
        <tspan x="-23.171" y="8" font-family="Verdana-Bold" font-size="21" fill="#294270">[1],</tspan>
      </text>
      <text transform="matrix(1, 0, 0, 1, 71.907, 442.522)">
        <tspan x="-38.019" y="8" font-family="Verdana-Bold" font-size="21" fill="#294270">[2, 3],</tspan>
      </text>
      <text transform="matrix(1, 0, 0, 1, 86.755, 467.522)">
        <tspan x="-52.867" y="8" font-family="Verdana-Bold" font-size="21" fill="#294270">[3, 3, 1],</tspan>
      </text>
      <text transform="matrix(1, 0, 0, 1, 101.602, 492.522)">
        <tspan x="-67.714" y="8" font-family="Verdana-Bold" font-size="21" fill="#294270">[3, 1, 5, 4],</tspan>
      </text>
      <text transform="matrix(1, 0, 0, 1, 116.45, 517.522)">
        <tspan x="-82.562" y="8" font-family="Verdana-Bold" font-size="21" fill="#294270">[3, 1, 3, 1, 3],</tspan>
      </text>
      <text transform="matrix(1, 0, 0, 1, 131.298, 542.522)">
        <tspan x="-97.41" y="8" font-family="Verdana-Bold" font-size="21" fill="#294270">[2, 2, 2, 2, 2, 2],</tspan>
      </text>
      <text transform="matrix(1, 0, 0, 1, 142.351, 567.522)">
        <tspan x="-108.463" y="8" font-family="Verdana-Bold" font-size="21" fill="#294270">[5, 6, 4, 5, 6, 4, 3]</tspan>
      </text>
      <text transform="matrix(1, 0, 0, 1, 40.094, 592.522)">
        <tspan x="-6.206" y="8" font-family="Verdana-Bold" font-size="21" fill="#294270">]</tspan>
      </text>
    </g>
    <text transform="matrix(1, 0, 0, 1, 193.965, 49)">
      <tspan x="-7.965" y="8" font-family="Verdana-Bold" font-size="21" fill="#294270">1</tspan>
    </text>
    <text transform="matrix(1, 0, 0, 1, 169.965, 97)">
      <tspan x="-7.965" y="8" font-family="Verdana-Bold" font-size="21" fill="#294270">2</tspan>
    </text>
    <text transform="matrix(1, 0, 0, 1, 217.965, 97)">
      <tspan x="-7.965" y="8" font-family="Verdana-Bold" font-size="21" fill="#294270">3</tspan>
    </text>
    <text transform="matrix(1, 0, 0, 1, 145.965, 145)">
      <tspan x="-7.965" y="8" font-family="Verdana-Bold" font-size="21" fill="#294270">3</tspan>
    </text>
    <text transform="matrix(1, 0, 0, 1, 193.965, 145)">
      <tspan x="-7.965" y="8" font-family="Verdana-Bold" font-size="21" fill="#294270">3</tspan>
    </text>
    <text transform="matrix(1, 0, 0, 1, 241.965, 145)">
      <tspan x="-7.965" y="8" font-family="Verdana-Bold" font-size="21" fill="#294270">1</tspan>
    </text>
    <text transform="matrix(1, 0, 0, 1, 121.965, 193)">
      <tspan x="-7.965" y="8" font-family="Verdana-Bold" font-size="21" fill="#294270">3</tspan>
    </text>
    <text transform="matrix(1, 0, 0, 1, 169.965, 193)">
      <tspan x="-7.965" y="8" font-family="Verdana-Bold" font-size="21" fill="#294270">1</tspan>
    </text>
    <text transform="matrix(1, 0, 0, 1, 217.965, 193)">
      <tspan x="-7.965" y="8" font-family="Verdana-Bold" font-size="21" fill="#294270">5</tspan>
    </text>
    <text transform="matrix(1, 0, 0, 1, 265.965, 193)">
      <tspan x="-7.965" y="8" font-family="Verdana-Bold" font-size="21" fill="#294270">4</tspan>
    </text>
    <text transform="matrix(1, 0, 0, 1, 97.965, 241)">
      <tspan x="-7.965" y="8" font-family="Verdana-Bold" font-size="21" fill="#294270">3</tspan>
    </text>
    <text transform="matrix(1, 0, 0, 1, 145.965, 241)">
      <tspan x="-7.965" y="8" font-family="Verdana-Bold" font-size="21" fill="#294270">1</tspan>
    </text>
    <text transform="matrix(1, 0, 0, 1, 193.965, 241)">
      <tspan x="-7.965" y="8" font-family="Verdana-Bold" font-size="21" fill="#294270">3</tspan>
    </text>
    <text transform="matrix(1, 0, 0, 1, 73.965, 289)">
      <tspan x="-7.965" y="8" font-family="Verdana-Bold" font-size="21" fill="#294270">2</tspan>
    </text>
    <text transform="matrix(1, 0, 0, 1, 121.965, 289)">
      <tspan x="-7.965" y="8" font-family="Verdana-Bold" font-size="21" fill="#294270">2</tspan>
    </text>
    <text transform="matrix(1, 0, 0, 1, 169.965, 289)">
      <tspan x="-7.965" y="8" font-family="Verdana-Bold" font-size="21" fill="#294270">2</tspan>
    </text>
    <text transform="matrix(1, 0, 0, 1, 217.965, 289)">
      <tspan x="-7.965" y="8" font-family="Verdana-Bold" font-size="21" fill="#294270">2</tspan>
    </text>
    <text transform="matrix(1, 0, 0, 1, 265.965, 289)">
      <tspan x="-7.965" y="8" font-family="Verdana-Bold" font-size="21" fill="#294270">2</tspan>
    </text>
    <text transform="matrix(1, 0, 0, 1, 313.965, 289)">
      <tspan x="-7.965" y="8" font-family="Verdana-Bold" font-size="21" fill="#294270">2</tspan>
    </text>
    <text transform="matrix(1, 0, 0, 1, 241.965, 241)">
      <tspan x="-7.965" y="8" font-family="Verdana-Bold" font-size="21" fill="#294270">1</tspan>
    </text>
    <text transform="matrix(1, 0, 0, 1, 289.965, 241)">
      <tspan x="-7.965" y="8" font-family="Verdana-Bold" font-size="21" fill="#294270">3</tspan>
    </text>
    <text transform="matrix(1, 0, 0, 1, 49.965, 337)">
      <tspan x="-7.965" y="8" font-family="Verdana-Bold" font-size="21" fill="#294270">5</tspan>
    </text>
    <text transform="matrix(1, 0, 0, 1, 97.965, 337)">
      <tspan x="-7.965" y="8" font-family="Verdana-Bold" font-size="21" fill="#294270">6</tspan>
    </text>
    <text transform="matrix(1, 0, 0, 1, 145.965, 337)">
      <tspan x="-7.965" y="8" font-family="Verdana-Bold" font-size="21" fill="#294270">4</tspan>
    </text>
    <text transform="matrix(1, 0, 0, 1, 193.965, 337)">
      <tspan x="-7.965" y="8" font-family="Verdana-Bold" font-size="21" fill="#294270">5</tspan>
    </text>
    <text transform="matrix(1, 0, 0, 1, 241.965, 337)">
      <tspan x="-7.965" y="8" font-family="Verdana-Bold" font-size="21" fill="#294270">6</tspan>
    </text>
    <text transform="matrix(1, 0, 0, 1, 289.965, 337)">
      <tspan x="-7.965" y="8" font-family="Verdana-Bold" font-size="21" fill="#294270">4</tspan>
    </text>
    <text transform="matrix(1, 0, 0, 1, 337.965, 337)">
      <tspan x="-7.965" y="8" font-family="Verdana-Bold" font-size="21" fill="#294270">3</tspan>
    </text>
    <text transform="matrix(1, 0, 0, 1, 577.965, 49)">
      <tspan x="-7.965" y="8" font-family="Verdana-Bold" font-size="21" fill="#294270">1</tspan>
    </text>
    <text transform="matrix(1, 0, 0, 1, 553.965, 97)">
      <tspan x="-7.965" y="8" font-family="Verdana-Bold" font-size="21" fill="#294270">2</tspan>
    </text>
    <text transform="matrix(1, 0, 0, 1, 601.965, 97)">
      <tspan x="-7.965" y="8" font-family="Verdana-Bold" font-size="21" fill="#294270">1</tspan>
    </text>
    <text transform="matrix(1, 0, 0, 1, 577.965, 145)">
      <tspan x="-7.965" y="8" font-family="Verdana-Bold" font-size="21" fill="#294270">2</tspan>
    </text>
    <text transform="matrix(1, 0, 0, 1, 553.965, 193)">
      <tspan x="-7.965" y="8" font-family="Verdana-Bold" font-size="21" fill="#294270">2</tspan>
    </text>
    <text transform="matrix(1, 0, 0, 1, 529.965, 241)">
      <tspan x="-7.965" y="8" font-family="Verdana-Bold" font-size="21" fill="#294270">2</tspan>
    </text>
    <text transform="matrix(1, 0, 0, 1, 505.965, 289)">
      <tspan x="-7.965" y="8" font-family="Verdana-Bold" font-size="21" fill="#294270">2</tspan>
    </text>
    <text transform="matrix(1, 0, 0, 1, 481.965, 337)">
      <tspan x="-7.965" y="8" font-family="Verdana-Bold" font-size="21" fill="#294270">2</tspan>
    </text>
    <text transform="matrix(1, 0, 0, 1, 625.965, 145)">
      <tspan x="-7.965" y="8" font-family="Verdana-Bold" font-size="21" fill="#294270">1</tspan>
    </text>
    <text transform="matrix(1, 0, 0, 1, 601.965, 193)">
      <tspan x="-7.965" y="8" font-family="Verdana-Bold" font-size="21" fill="#294270">1</tspan>
    </text>
    <text transform="matrix(1, 0, 0, 1, 649.965, 193)">
      <tspan x="-7.965" y="8" font-family="Verdana-Bold" font-size="21" fill="#294270">1</tspan>
    </text>
    <text transform="matrix(1, 0, 0, 1, 577.965, 241)">
      <tspan x="-7.965" y="8" font-family="Verdana-Bold" font-size="21" fill="#294270">1</tspan>
    </text>
    <text transform="matrix(1, 0, 0, 1, 625.965, 241)">
      <tspan x="-7.965" y="8" font-family="Verdana-Bold" font-size="21" fill="#294270">1</tspan>
    </text>
    <text transform="matrix(1, 0, 0, 1, 673.965, 241)">
      <tspan x="-7.965" y="8" font-family="Verdana-Bold" font-size="21" fill="#294270">1</tspan>
    </text>
    <text transform="matrix(1, 0, 0, 1, 553.965, 289)">
      <tspan x="-7.965" y="8" font-family="Verdana-Bold" font-size="21" fill="#294270">1</tspan>
    </text>
    <text transform="matrix(1, 0, 0, 1, 601.965, 289)">
      <tspan x="-7.965" y="8" font-family="Verdana-Bold" font-size="21" fill="#294270">1</tspan>
    </text>
    <text transform="matrix(1, 0, 0, 1, 649.965, 289)">
      <tspan x="-7.965" y="8" font-family="Verdana-Bold" font-size="21" fill="#294270">1</tspan>
    </text>
    <text transform="matrix(1, 0, 0, 1, 697.965, 289)">
      <tspan x="-7.965" y="8" font-family="Verdana-Bold" font-size="21" fill="#294270">1</tspan>
    </text>
    <text transform="matrix(1, 0, 0, 1, 721.965, 337)">
      <tspan x="-7.965" y="8" font-family="Verdana-Bold" font-size="21" fill="#294270">9</tspan>
    </text>
    <text transform="matrix(1, 0, 0, 1, 529.965, 145)">
      <tspan x="-7.965" y="8" font-family="Verdana-Bold" font-size="21" fill="#294270">1</tspan>
    </text>
    <text transform="matrix(1, 0, 0, 1, 505.965, 193)">
      <tspan x="-7.965" y="8" font-family="Verdana-Bold" font-size="21" fill="#294270">1</tspan>
    </text>
    <text transform="matrix(1, 0, 0, 1, 481.965, 241)">
      <tspan x="-7.965" y="8" font-family="Verdana-Bold" font-size="21" fill="#294270">1</tspan>
    </text>
    <text transform="matrix(1, 0, 0, 1, 457.965, 289)">
      <tspan x="-7.965" y="8" font-family="Verdana-Bold" font-size="21" fill="#294270">1</tspan>
    </text>
    <text transform="matrix(1, 0, 0, 1, 433.965, 337)">
      <tspan x="-7.965" y="8" font-family="Verdana-Bold" font-size="21" fill="#294270">1</tspan>
    </text>
    <text transform="matrix(1, 0, 0, 1, 529.965, 337)">
      <tspan x="-7.965" y="8" font-family="Verdana-Bold" font-size="21" fill="#294270">1</tspan>
    </text>
    <text transform="matrix(1, 0, 0, 1, 577.965, 337)">
      <tspan x="-7.965" y="8" font-family="Verdana-Bold" font-size="21" fill="#294270">1</tspan>
    </text>
    <text transform="matrix(1, 0, 0, 1, 625.965, 337)">
      <tspan x="-7.965" y="8" font-family="Verdana-Bold" font-size="21" fill="#294270">1</tspan>
    </text>
    <text transform="matrix(1, 0, 0, 1, 673.965, 337)">
      <tspan x="-7.965" y="8" font-family="Verdana-Bold" font-size="21" fill="#294270">1</tspan>
    </text>
    <g>
      <text transform="matrix(1, 0, 0, 1, 432.206, 391)">
        <tspan x="-6.206" y="8" font-family="Verdana-Bold" font-size="21" fill="#294270">[</tspan>
      </text>
      <text transform="matrix(1, 0, 0, 1, 449.171, 416)">
        <tspan x="-23.171" y="8" font-family="Verdana-Bold" font-size="21" fill="#294270">[1],</tspan>
      </text>
      <text transform="matrix(1, 0, 0, 1, 464.019, 441)">
        <tspan x="-38.019" y="8" font-family="Verdana-Bold" font-size="21" fill="#294270">[2, 1],</tspan>
      </text>
      <text transform="matrix(1, 0, 0, 1, 478.867, 466)">
        <tspan x="-52.867" y="8" font-family="Verdana-Bold" font-size="21" fill="#294270">[1, 2, 1],</tspan>
      </text>
      <text transform="matrix(1, 0, 0, 1, 493.714, 491)">
        <tspan x="-67.714" y="8" font-family="Verdana-Bold" font-size="21" fill="#294270">[1, 2, 1, 1],</tspan>
      </text>
      <text transform="matrix(1, 0, 0, 1, 508.562, 516)">
        <tspan x="-82.562" y="8" font-family="Verdana-Bold" font-size="21" fill="#294270">[1, 2, 1, 1, 1],</tspan>
      </text>
      <text transform="matrix(1, 0, 0, 1, 523.41, 541)">
        <tspan x="-97.41" y="8" font-family="Verdana-Bold" font-size="21" fill="#294270">[1, 2, 1, 1, 1, 1],</tspan>
      </text>
      <text transform="matrix(1, 0, 0, 1, 534.463, 566)">
        <tspan x="-108.463" y="8" font-family="Verdana-Bold" font-size="21" fill="#294270">[1, 2, 1, 1, 1, 1, 9]</tspan>
      </text>
      <text transform="matrix(1, 0, 0, 1, 432.206, 591)">
        <tspan x="-6.206" y="8" font-family="Verdana-Bold" font-size="21" fill="#294270">]</tspan>
      </text>
    </g>
    <text transform="matrix(1, 0, 0, 1, 83.232, 631)">
      <tspan x="-47.232" y="8" font-family="Verdana-Bold" font-size="21" fill="#294270">Max: 23</tspan>
    </text>
    <text transform="matrix(1, 0, 0, 1, 857.232, 565)">
      <tspan x="-47.232" y="8" font-family="Verdana-Bold" font-size="21" fill="#294270">Max: 18</tspan>
    </text>
    <text transform="matrix(1, 0, 0, 1, 889.965, 193)">
      <tspan x="-7.965" y="8" font-family="Verdana-Bold" font-size="21" fill="#294270">9</tspan>
    </text>
    <text transform="matrix(1, 0, 0, 1, 865.965, 241)">
      <tspan x="-7.965" y="8" font-family="Verdana-Bold" font-size="21" fill="#294270">2</tspan>
    </text>
    <text transform="matrix(1, 0, 0, 1, 913.965, 241)">
      <tspan x="-7.965" y="8" font-family="Verdana-Bold" font-size="21" fill="#294270">2</tspan>
    </text>
    <text transform="matrix(1, 0, 0, 1, 841.965, 289)">
      <tspan x="-7.965" y="8" font-family="Verdana-Bold" font-size="21" fill="#294270">3</tspan>
    </text>
    <text transform="matrix(1, 0, 0, 1, 889.965, 289)">
      <tspan x="-7.965" y="8" font-family="Verdana-Bold" font-size="21" fill="#294270">3</tspan>
    </text>
    <text transform="matrix(1, 0, 0, 1, 937.965, 289)">
      <tspan x="-7.965" y="8" font-family="Verdana-Bold" font-size="21" fill="#294270">3</tspan>
    </text>
    <text transform="matrix(1, 0, 0, 1, 817.965, 337)">
      <tspan x="-7.965" y="8" font-family="Verdana-Bold" font-size="21" fill="#294270">4</tspan>
    </text>
    <text transform="matrix(1, 0, 0, 1, 865.965, 337)">
      <tspan x="-7.965" y="8" font-family="Verdana-Bold" font-size="21" fill="#294270">4</tspan>
    </text>
    <text transform="matrix(1, 0, 0, 1, 913.965, 337)">
      <tspan x="-7.965" y="8" font-family="Verdana-Bold" font-size="21" fill="#294270">4</tspan>
    </text>
    <text transform="matrix(1, 0, 0, 1, 961.965, 337)">
      <tspan x="-7.965" y="8" font-family="Verdana-Bold" font-size="21" fill="#294270">4</tspan>
    </text>
    <g>
      <text transform="matrix(1, 0, 0, 1, 816.206, 391)">
        <tspan x="-6.206" y="8" font-family="Verdana-Bold" font-size="21" fill="#294270">[</tspan>
      </text>
      <text transform="matrix(1, 0, 0, 1, 833.171, 416)">
        <tspan x="-23.171" y="8" font-family="Verdana-Bold" font-size="21" fill="#294270">[9],</tspan>
      </text>
      <text transform="matrix(1, 0, 0, 1, 848.019, 441)">
        <tspan x="-38.019" y="8" font-family="Verdana-Bold" font-size="21" fill="#294270">[2, 2],</tspan>
      </text>
      <text transform="matrix(1, 0, 0, 1, 862.867, 466)">
        <tspan x="-52.867" y="8" font-family="Verdana-Bold" font-size="21" fill="#294270">[3, 3, 3],</tspan>
      </text>
      <text transform="matrix(1, 0, 0, 1, 873.92, 491)">
        <tspan x="-63.92" y="8" font-family="Verdana-Bold" font-size="21" fill="#294270">[4, 4, 4, 4]</tspan>
      </text>
      <text transform="matrix(1, 0, 0, 1, 816.206, 516)">
        <tspan x="-6.206" y="8" font-family="Verdana-Bold" font-size="21" fill="#294270">]</tspan>
      </text>
    </g>
    <text transform="matrix(1, 0, 0, 1, 473.232, 631)">
      <tspan x="-47.232" y="8" font-family="Verdana-Bold" font-size="21" fill="#294270">Max: 15</tspan>
    </text>
  </g>
  <defs/>
</svg>
